<svg xmlns="http://www.w3.org/2000/svg" xmlns:xlink="http://www.w3.org/1999/xlink" viewBox="575 315.7613 379.9998 55.1856" width="417" height="55.1856" x="41.5px" y="200.0821px" preserveAspectRatio="none"><defs/><style>.aa8C7dUPAUx0filter-flooc2d6fcd2-5593-4741-9014-5dffc8dd5053 {flood-color:#0C0C0C;flood-opacity:0.5;}.companyNamec2d6fcd2-5593-4741-9014-5dffc8dd5053 {fill:#0C0C0C;fill-opacity:1;}.icon3-strc2d6fcd2-5593-4741-9014-5dffc8dd5053 {stroke:#929292;stroke-opacity:1;}.icon3c2d6fcd2-5593-4741-9014-5dffc8dd5053 {fill:#929292;fill-opacity:1;}</style><g opacity="1" transform="rotate(0 644.0091 315.7613)">
<svg width="310.9907" height="55.1856" x="644.0091" y="315.7613" version="1.1" preserveAspectRatio="none" viewBox="-2.52 -28.48 163.20000000000002 28.96">
  <g transform="matrix(1 0 0 1 0 0)" class="companyNamec2d6fcd2-5593-4741-9014-5dffc8dd5053"><path id="id-c2d6fcd2-5593-4741-9014-5dffc8dd5053D6z1nYkh6" d="M22.40 0L21.08-6L8.04-6L4.40 0L-2.52 0L15.60-28L22-28L28.88 0L22.40 0ZM11.04-10.92L20-10.92L17.64-21.72L11.04-10.92Z M31.80 0L37.40-28L43.92-28L39.36-5.28L53.40-5.28L52.32 0L31.80 0Z M55.96 0L61.56-28L68.08-28L62.48 0L55.96 0Z M69.08 0L74.68-28L86.40-28Q90.68-28 93.78-26.58Q96.88-25.16 98.54-22.52Q100.20-19.88 100.20-16.32L100.20-16.32Q100.20-11.44 98-7.74Q95.80-4.04 91.86-2.02Q87.92 0 82.76 0L82.76 0L69.08 0ZM76.64-5.32L82.96-5.32Q86.24-5.32 88.66-6.70Q91.08-8.08 92.36-10.50Q93.64-12.92 93.64-15.96L93.64-15.96Q93.64-19.12 91.60-20.90Q89.56-22.68 85.68-22.68L85.68-22.68L80.12-22.68L76.64-5.32Z M116.64 0.48Q112.44 0.48 109.36-1.04Q106.28-2.56 104.64-5.32Q103.00-8.08 103.00-11.68L103.00-11.68Q103.00-16.44 105.18-20.26Q107.36-24.08 111.30-26.28Q115.24-28.48 120.32-28.48L120.32-28.48Q124.52-28.48 127.60-26.96Q130.68-25.44 132.32-22.68Q133.96-19.92 133.96-16.32L133.96-16.32Q133.96-11.56 131.78-7.74Q129.60-3.92 125.66-1.72Q121.72 0.48 116.64 0.48L116.64 0.48ZM117.20-5.04Q120.28-5.04 122.60-6.52Q124.92-8 126.16-10.48Q127.40-12.96 127.40-15.96L127.40-15.96Q127.40-19.16 125.40-21.06Q123.40-22.96 119.76-22.96L119.76-22.96Q116.68-22.96 114.36-21.48Q112.04-20 110.80-17.52Q109.56-15.04 109.56-12.04L109.56-12.04Q109.56-8.84 111.56-6.94Q113.56-5.04 117.20-5.04L117.20-5.04Z M145.64 0.48Q142.32 0.48 139.28-0.40Q136.24-1.28 134.40-2.64L134.40-2.64L137.04-7.64Q138.96-6.24 141.36-5.48Q143.76-4.72 146.28-4.72L146.28-4.72Q148.96-4.72 150.52-5.60Q152.08-6.48 152.08-8L152.08-8Q152.08-9.24 150.84-9.90Q149.60-10.56 146.88-11.32L146.88-11.32Q144.16-12.12 142.44-12.86Q140.72-13.60 139.46-15.08Q138.20-16.56 138.20-19L138.20-19Q138.20-21.84 139.78-24Q141.36-26.16 144.26-27.32Q147.16-28.48 151-28.48L151-28.48Q153.84-28.48 156.36-27.86Q158.88-27.24 160.68-26.08L160.68-26.08L158.24-21.12Q156.68-22.20 154.72-22.74Q152.76-23.28 150.64-23.28L150.64-23.28Q147.88-23.28 146.28-22.32Q144.68-21.36 144.68-19.84L144.68-19.84Q144.68-18.92 145.36-18.30Q146.04-17.68 147.08-17.30Q148.12-16.92 150-16.40L150-16.40Q152.68-15.68 154.40-14.94Q156.12-14.20 157.34-12.78Q158.56-11.36 158.56-9.04L158.56-9.04Q158.56-6.16 156.96-4.02Q155.36-1.88 152.44-0.70Q149.52 0.48 145.64 0.48L145.64 0.48Z"/></g>
</svg>
</g><g opacity="1" transform="rotate(0 575 315.7613)">
<svg width="69.0091" height="55.1856" x="575" y="315.7613" version="1.1" preserveAspectRatio="none" viewBox="-4.6 -33.68 47.12 37.68">
  <g transform="matrix(1 0 0 1 0 0)" class="icon3c2d6fcd2-5593-4741-9014-5dffc8dd5053"><path id="id-c2d6fcd2-5593-4741-9014-5dffc8dd5053hTdFi603-2" d="M-4.60 4L15.88-33.68L24.12-33.68L3.64 4L-4.60 4Z M13.80 4L34.28-33.68L42.52-33.68L22.04 4L13.80 4Z"/></g>
</svg>
</g></svg>