<svg width="24" height="24" fill="none" xmlns="http://www.w3.org/2000/svg" class="css-c2rigk" aria-hidden="true"><path d="M4.5 5.712c0-.483.169-.881.507-1.195.338-.314.777-.47 1.317-.47.531 0 .96.154 1.289.463.338.318.507.734.507 1.245 0 .463-.164.85-.493 1.158-.337.319-.781.478-1.332.478h-.014c-.531 0-.96-.159-1.289-.478-.328-.318-.492-.719-.492-1.201Zm.188 12.669V8.709h3.215v9.672H4.688Zm4.995 0h3.215v-5.4c0-.339.038-.6.116-.783a2.1 2.1 0 0 1 .615-.832c.275-.227.62-.34 1.035-.34 1.081 0 1.622.728 1.622 2.186v5.169H19.5v-5.546c0-1.428-.338-2.512-1.014-3.25-.675-.739-1.568-1.108-2.678-1.108-1.245 0-2.215.536-2.91 1.607v.03h-.015l.015-.03V8.71H9.683c.02.309.03 1.27.03 2.881 0 1.612-.01 3.876-.03 6.79Z" fill="white"></path></svg>