<svg xmlns="http://www.w3.org/2000/svg" xmlns:xlink="http://www.w3.org/1999/xlink" viewBox="575 315.7613 379.9998 90.9774" width="417" height="99.83577833462017" x="41.5px" y="200.0821px" preserveAspectRatio="none"><defs/><style>.aa8C7dUPAUx0filter-flooc2d6fcd2-5593-4741-9014-5dffc8dd5053 {flood-color:#0C0C0C;flood-opacity:0.5;}.companyNamec2d6fcd2-5593-4741-9014-5dffc8dd5053 {fill:#0C0C0C;fill-opacity:1;}.icon3-strc2d6fcd2-5593-4741-9014-5dffc8dd5053 {stroke:#929292;stroke-opacity:1;}.icon3c2d6fcd2-5593-4741-9014-5dffc8dd5053 {fill:#929292;fill-opacity:1;}</style><g opacity="1" transform="rotate(0 575 383.5608)">
<svg width="109.9553" height="23.1779" x="575" y="383.5608" version="1.1" preserveAspectRatio="none" viewBox="4.2 -30.28 181.6 38.28">
  <g transform="matrix(1 0 0 1 0 0)" class="icon3c2d6fcd2-5593-4741-9014-5dffc8dd5053"><path id="id-c2d6fcd2-5593-4741-9014-5dffc8dd50536izo4zJp9" d="M27.28 0L22.92 0L16.88-8.60Q15.76-8.52 15.12-8.52L15.12-8.52L8.20-8.52L8.20 0L4.20 0L4.20-28L15.12-28Q20.56-28 23.68-25.40Q26.80-22.80 26.80-18.24L26.80-18.24Q26.80-15 25.20-12.72Q23.60-10.44 20.64-9.40L20.64-9.40L27.28 0ZM15-11.92Q18.80-11.92 20.80-13.56Q22.80-15.20 22.80-18.24L22.80-18.24Q22.80-21.28 20.80-22.90Q18.80-24.52 15-24.52L15-24.52L8.20-24.52L8.20-11.92L15-11.92Z M48.92-21.20L52.68-21.20L42.40 2.12Q41.04 5.36 39.22 6.68Q37.40 8 34.84 8L34.84 8Q33.28 8 31.82 7.50Q30.36 7 29.40 6.04L29.40 6.04L31.04 3.16Q32.68 4.72 34.84 4.72L34.84 4.72Q36.24 4.72 37.18 3.98Q38.12 3.24 38.88 1.44L38.88 1.44L39.56-0.04L30.20-21.20L34.20-21.20L41.60-4.24L48.92-21.20Z M57.48 0L57.48-29.68L61.32-29.68L61.32 0L57.48 0Z M101.20-14.52Q103.64-13.84 105.04-12.06Q106.44-10.28 106.44-7.56L106.44-7.56Q106.44-3.92 103.70-1.96Q100.96 0 95.72 0L95.72 0L82.36 0L82.36-28L94.92-28Q99.72-28 102.34-26.08Q104.96-24.16 104.96-20.76L104.96-20.76Q104.96-18.56 103.94-16.96Q102.92-15.36 101.20-14.52L101.20-14.52ZM94.56-24.76L86.36-24.76L86.36-15.80L94.56-15.80Q97.64-15.80 99.30-16.94Q100.96-18.08 100.96-20.28L100.96-20.28Q100.96-22.48 99.30-23.62Q97.64-24.76 94.56-24.76L94.56-24.76ZM95.56-3.24Q98.96-3.24 100.68-4.36Q102.40-5.48 102.40-7.88L102.40-7.88Q102.40-12.56 95.56-12.56L95.56-12.56L86.36-12.56L86.36-3.24L95.56-3.24Z M121.00-21.40Q125.40-21.40 127.74-19.24Q130.08-17.08 130.08-12.80L130.08-12.80L130.08 0L126.44 0L126.44-2.80Q125.48-1.32 123.70-0.54Q121.92 0.24 119.48 0.24L119.48 0.24Q115.92 0.24 113.78-1.48Q111.64-3.20 111.64-6L111.64-6Q111.64-8.80 113.68-10.50Q115.72-12.20 120.16-12.20L120.16-12.20L126.24-12.20L126.24-12.96Q126.24-15.44 124.80-16.76Q123.36-18.08 120.56-18.08L120.56-18.08Q118.68-18.08 116.88-17.46Q115.08-16.84 113.84-15.80L113.84-15.80L112.24-18.68Q113.88-20 116.16-20.70Q118.44-21.40 121.00-21.40L121.00-21.40ZM120.12-2.72Q122.32-2.72 123.92-3.70Q125.52-4.68 126.24-6.48L126.24-6.48L126.24-9.44L120.32-9.44Q115.44-9.44 115.44-6.16L115.44-6.16Q115.44-4.56 116.68-3.64Q117.92-2.72 120.12-2.72L120.12-2.72Z M149.12-4L150.32-1.24Q149.48-0.52 148.24-0.14Q147 0.24 145.68 0.24L145.68 0.24Q142.48 0.24 140.72-1.48Q138.96-3.20 138.96-6.40L138.96-6.40L138.96-18.04L135.36-18.04L135.36-21.20L138.96-21.20L138.96-25.84L142.80-25.84L142.80-21.20L148.88-21.20L148.88-18.04L142.80-18.04L142.80-6.56Q142.80-4.84 143.66-3.92Q144.52-3 146.12-3L146.12-3Q147.88-3 149.12-4L149.12-4Z M163.88-21.40Q168.28-21.40 170.62-19.24Q172.96-17.08 172.96-12.80L172.96-12.80L172.96 0L169.32 0L169.32-2.80Q168.36-1.32 166.58-0.54Q164.80 0.24 162.36 0.24L162.36 0.24Q158.80 0.24 156.66-1.48Q154.52-3.20 154.52-6L154.52-6Q154.52-8.80 156.56-10.50Q158.60-12.20 163.04-12.20L163.04-12.20L169.12-12.20L169.12-12.96Q169.12-15.44 167.68-16.76Q166.24-18.08 163.44-18.08L163.44-18.08Q161.56-18.08 159.76-17.46Q157.96-16.84 156.72-15.80L156.72-15.80L155.12-18.68Q156.76-20 159.04-20.70Q161.32-21.40 163.88-21.40L163.88-21.40ZM163.00-2.72Q165.20-2.72 166.80-3.70Q168.40-4.68 169.12-6.48L169.12-6.48L169.12-9.44L163.20-9.44Q158.32-9.44 158.32-6.16L158.32-6.16Q158.32-4.56 159.56-3.64Q160.80-2.72 163.00-2.72L163.00-2.72Z M181.28 0L181.28-21.20L185.12-21.20L185.12 0L181.28 0ZM183.20-25.28Q182.08-25.28 181.34-26Q180.60-26.72 180.60-27.76L180.60-27.76Q180.60-28.80 181.34-29.54Q182.08-30.28 183.20-30.28L183.20-30.28Q184.32-30.28 185.06-29.58Q185.80-28.88 185.80-27.84L185.80-27.84Q185.80-26.76 185.06-26.02Q184.32-25.28 183.20-25.28L183.20-25.28Z"/></g>
</svg>
</g><g opacity="1" transform="rotate(0 644.0091 315.7613)">
<svg width="310.9907" height="55.1856" x="644.0091" y="315.7613" version="1.1" preserveAspectRatio="none" viewBox="-2.52 -28.48 163.20000000000002 28.96">
  <g transform="matrix(1 0 0 1 0 0)" class="companyNamec2d6fcd2-5593-4741-9014-5dffc8dd5053"><path id="id-c2d6fcd2-5593-4741-9014-5dffc8dd5053D6z1nYkh6" d="M22.40 0L21.08-6L8.04-6L4.40 0L-2.52 0L15.60-28L22-28L28.88 0L22.40 0ZM11.04-10.92L20-10.92L17.64-21.72L11.04-10.92Z M31.80 0L37.40-28L43.92-28L39.36-5.28L53.40-5.28L52.32 0L31.80 0Z M55.96 0L61.56-28L68.08-28L62.48 0L55.96 0Z M69.08 0L74.68-28L86.40-28Q90.68-28 93.78-26.58Q96.88-25.16 98.54-22.52Q100.20-19.88 100.20-16.32L100.20-16.32Q100.20-11.44 98-7.74Q95.80-4.04 91.86-2.02Q87.92 0 82.76 0L82.76 0L69.08 0ZM76.64-5.32L82.96-5.32Q86.24-5.32 88.66-6.70Q91.08-8.08 92.36-10.50Q93.64-12.92 93.64-15.96L93.64-15.96Q93.64-19.12 91.60-20.90Q89.56-22.68 85.68-22.68L85.68-22.68L80.12-22.68L76.64-5.32Z M116.64 0.48Q112.44 0.48 109.36-1.04Q106.28-2.56 104.64-5.32Q103.00-8.08 103.00-11.68L103.00-11.68Q103.00-16.44 105.18-20.26Q107.36-24.08 111.30-26.28Q115.24-28.48 120.32-28.48L120.32-28.48Q124.52-28.48 127.60-26.96Q130.68-25.44 132.32-22.68Q133.96-19.92 133.96-16.32L133.96-16.32Q133.96-11.56 131.78-7.74Q129.60-3.92 125.66-1.72Q121.72 0.48 116.64 0.48L116.64 0.48ZM117.20-5.04Q120.28-5.04 122.60-6.52Q124.92-8 126.16-10.48Q127.40-12.96 127.40-15.96L127.40-15.96Q127.40-19.16 125.40-21.06Q123.40-22.96 119.76-22.96L119.76-22.96Q116.68-22.96 114.36-21.48Q112.04-20 110.80-17.52Q109.56-15.04 109.56-12.04L109.56-12.04Q109.56-8.84 111.56-6.94Q113.56-5.04 117.20-5.04L117.20-5.04Z M145.64 0.48Q142.32 0.48 139.28-0.40Q136.24-1.28 134.40-2.64L134.40-2.64L137.04-7.64Q138.96-6.24 141.36-5.48Q143.76-4.72 146.28-4.72L146.28-4.72Q148.96-4.72 150.52-5.60Q152.08-6.48 152.08-8L152.08-8Q152.08-9.24 150.84-9.90Q149.60-10.56 146.88-11.32L146.88-11.32Q144.16-12.12 142.44-12.86Q140.72-13.60 139.46-15.08Q138.20-16.56 138.20-19L138.20-19Q138.20-21.84 139.78-24Q141.36-26.16 144.26-27.32Q147.16-28.48 151-28.48L151-28.48Q153.84-28.48 156.36-27.86Q158.88-27.24 160.68-26.08L160.68-26.08L158.24-21.12Q156.68-22.20 154.72-22.74Q152.76-23.28 150.64-23.28L150.64-23.28Q147.88-23.28 146.28-22.32Q144.68-21.36 144.68-19.84L144.68-19.84Q144.68-18.92 145.36-18.30Q146.04-17.68 147.08-17.30Q148.12-16.92 150-16.40L150-16.40Q152.68-15.68 154.40-14.94Q156.12-14.20 157.34-12.78Q158.56-11.36 158.56-9.04L158.56-9.04Q158.56-6.16 156.96-4.02Q155.36-1.88 152.44-0.70Q149.52 0.48 145.64 0.48L145.64 0.48Z"/></g>
</svg>
</g><g opacity="1" transform="rotate(0 575 315.7613)">
<svg width="69.0091" height="55.1856" x="575" y="315.7613" version="1.1" preserveAspectRatio="none" viewBox="-4.6 -33.68 47.12 37.68">
  <g transform="matrix(1 0 0 1 0 0)" class="icon3c2d6fcd2-5593-4741-9014-5dffc8dd5053"><path id="id-c2d6fcd2-5593-4741-9014-5dffc8dd5053hTdFi603-2" d="M-4.60 4L15.88-33.68L24.12-33.68L3.64 4L-4.60 4Z M13.80 4L34.28-33.68L42.52-33.68L22.04 4L13.80 4Z"/></g>
</svg>
</g></svg>